<?xml version="1.0" encoding="utf-8"?>
<!-- Generator: Adobe Illustrator 21.1.0, SVG Export Plug-In . SVG Version: 6.00 Build 0)  -->
<svg version="1.1" id="Layer_1" xmlns="http://www.w3.org/2000/svg" xmlns:xlink="http://www.w3.org/1999/xlink" x="0px" y="0px"
	 viewBox="0 0 18 18" style="enable-background:new 0 0 18 18;" xml:space="preserve">
<style type="text/css">
	.st0{fill:#B78A35;}
</style>
<g>
	<path class="st0" d="M14.3,6c1.7,0,3-1.4,3-3s-1.4-3-3-3s-3,1.4-3,3c0,0.3,0.1,0.5,0.1,0.8L5.9,6.9C5.3,6.4,4.6,6,3.7,6
		c-1.7,0-3,1.4-3,3s1.4,3,3,3c0.8,0,1.6-0.4,2.2-0.9l5.5,3.2c-0.1,0.2-0.1,0.5-0.1,0.8c0,1.7,1.4,3,3,3s3-1.4,3-3s-1.4-3-3-3
		c-0.8,0-1.6,0.4-2.2,0.9L6.6,9.7C6.7,9.5,6.7,9.3,6.7,9S6.7,8.5,6.6,8.2l5.5-3.2C12.7,5.6,13.4,6,14.3,6z"/>
</g>
</svg>
