<?xml version="1.0" encoding="utf-8"?>
<!-- Generator: Adobe Illustrator 21.1.0, SVG Export Plug-In . SVG Version: 6.00 Build 0)  -->
<svg version="1.1" id="Layer_1" xmlns="http://www.w3.org/2000/svg" xmlns:xlink="http://www.w3.org/1999/xlink" x="0px" y="0px"
	 viewBox="0 0 32 32" style="enable-background:new 0 0 32 32;" xml:space="preserve">
<style type="text/css">
	.st0{fill:#B78A35;}
</style>
<g>
	<path class="st0" d="M18.7,14.9c-0.5-0.3-0.6-0.9-0.4-1.4c0.4-0.8,0.7-1.6,0.7-2.5c0-2.8-2.2-5-5-5s-5,2.2-5,5
		c0,0.9,0.2,1.7,0.7,2.5c0.3,0.5,0.1,1.1-0.4,1.4c-0.5,0.3-1.1,0.1-1.4-0.4C7.3,13.4,7,12.2,7,11c0-3.9,3.1-7,7-7s7,3.1,7,7
		c0,1.2-0.3,2.4-0.9,3.5C19.8,15,19.2,15.1,18.7,14.9z"/>
	<path class="st0" d="M22.8,15.9c-0.5-0.2-0.7-0.8-0.5-1.3c0.5-1.1,0.7-2.3,0.7-3.6c0-5-4-9-9-9s-9,4-9,9c0,1.2,0.3,2.5,0.7,3.6
		c0.2,0.5,0,1.1-0.5,1.3c-0.5,0.2-1.1,0-1.3-0.5C3.3,14,3,12.5,3,11C3,4.9,7.9,0,14,0s11,4.9,11,11c0,1.5-0.3,3-0.9,4.4
		C23.9,15.9,23.3,16.1,22.8,15.9z"/>
	<path class="st0" d="M24.1,18.5L16,17v-6c0-1.1-0.9-2-2-2s-2,0.9-2,2v12h-1v-3h-1c-1.1,0-2,0.9-2,2v2.9c0,1.4,0.5,2.7,1.3,3.7
		L12,32h13l1.6-10.1C26.8,20.3,25.7,18.8,24.1,18.5z"/>
</g>
</svg>
