<?xml version="1.0" encoding="utf-8"?>
<!-- Generator: Adobe Illustrator 21.1.0, SVG Export Plug-In . SVG Version: 6.00 Build 0)  -->
<svg version="1.1" id="Layer_1" xmlns="http://www.w3.org/2000/svg" xmlns:xlink="http://www.w3.org/1999/xlink" x="0px" y="0px"
	 viewBox="0 0 24 24" style="enable-background:new 0 0 24 24;" xml:space="preserve">
<style type="text/css">
	.st0{fill:#3F3F3F;}
</style>
<path class="st0" d="M4,1v11H1c-0.6,0-1,0.4-1,1v8c0,1.7,1.3,3,3,3h1h17c1.7,0,3-1.3,3-3V1c0-0.6-0.4-1-1-1H5C4.4,0,4,0.4,4,1z M8,5
	h6v6H8V5z M3,22c-0.6,0-1-0.4-1-1v-7h2v7C4,21.6,3.6,22,3,22z M20,19H8v-2h12V19z M20,15H8v-2h12V15z M20,11h-4V9h4V11z M20,7h-4V5
	h4V7z"/>
</svg>
