<?xml version="1.0" encoding="utf-8"?>
<!-- Generator: Adobe Illustrator 21.1.0, SVG Export Plug-In . SVG Version: 6.00 Build 0)  -->
<svg version="1.1" id="Layer_1" xmlns="http://www.w3.org/2000/svg" xmlns:xlink="http://www.w3.org/1999/xlink" x="0px" y="0px"
	 viewBox="0 0 32 32" style="enable-background:new 0 0 32 32;" xml:space="preserve">
<style type="text/css">
	.st0{fill:#B78A35;}
</style>
<g>
	<circle class="st0" cx="6" cy="6" r="3"/>
	<path class="st0" d="M7,25V15c0-1.5,0.5-2.9,1.2-4c-0.1,0-0.2,0-0.2,0H4c-2.2,0-4,1.8-4,4v6h2v7h7v-3H7z"/>
	<circle class="st0" cx="26" cy="6" r="3"/>
	<path class="st0" d="M25,25V15c0-1.5-0.5-2.9-1.2-4c0.1,0,0.2,0,0.2,0h4c2.2,0,4,1.8,4,4v6h-2v7h-7v-3H25z"/>
	<path class="st0" d="M18,10h-4c-2.8,0-5,2.2-5,5v8h3v8h8v-8h3v-8C23,12.2,20.8,10,18,10z"/>
	<circle class="st0" cx="16" cy="4" r="4"/>
</g>
</svg>
