<?xml version="1.0" encoding="utf-8"?>
<!-- Generator: Adobe Illustrator 21.1.0, SVG Export Plug-In . SVG Version: 6.00 Build 0)  -->
<svg version="1.1" id="Layer_1" xmlns="http://www.w3.org/2000/svg" xmlns:xlink="http://www.w3.org/1999/xlink" x="0px" y="0px"
	 viewBox="0 0 32 32" style="enable-background:new 0 0 32 32;" xml:space="preserve">
<style type="text/css">
	.st0{fill:#B78A35;}
</style>
<g>
	<path class="st0" d="M30.8,15.4l-1.9-1.9l-1.5-8.2c-0.3-1.9-2-3.3-3.9-3.3h-15C6.6,2,4.9,3.4,4.6,5.3l-1.5,8.2l-1.9,1.9
		C0.4,16.2,0,17.2,0,18.2V24c0,0.6,0.4,1,1,1h1v3c0,0.6,0.4,1,1,1h4c0.6,0,1-0.4,1-1v-3h16v3c0,0.6,0.4,1,1,1h4c0.6,0,1-0.4,1-1v-3
		h1c0.6,0,1-0.4,1-1v-5.8C32,17.2,31.6,16.2,30.8,15.4z M6.5,5.6c0.2-1,1-1.6,2-1.6h15c1,0,1.8,0.7,2,1.6l1.3,7.4H5.2L6.5,5.6z
		 M7,21c-1.1,0-2-0.9-2-2s0.9-2,2-2s2,0.9,2,2S8.1,21,7,21z M19,20h-6c-0.6,0-1-0.4-1-1s0.4-1,1-1h6c0.6,0,1,0.4,1,1S19.6,20,19,20z
		 M25,21c-1.1,0-2-0.9-2-2s0.9-2,2-2s2,0.9,2,2S26.1,21,25,21z"/>
</g>
</svg>
