<?xml version="1.0" encoding="utf-8"?>
<!-- Generator: Adobe Illustrator 21.1.0, SVG Export Plug-In . SVG Version: 6.00 Build 0)  -->
<svg version="1.1" id="Layer_1" xmlns="http://www.w3.org/2000/svg" xmlns:xlink="http://www.w3.org/1999/xlink" x="0px" y="0px"
	 viewBox="0 0 32 32" style="enable-background:new 0 0 32 32;" xml:space="preserve">
<style type="text/css">
	.st0{fill:#B78A35;}
</style>
<g>
	<circle class="st0" cx="16" cy="7" r="1"/>
	<path class="st0" d="M32,25v-2h-2.1c-0.1-0.6-0.4-1.2-0.7-1.8l1.5-1.5l-1.4-1.4l-1.5,1.5c-0.5-0.3-1.1-0.6-1.8-0.7V17h-2v2.1
		c-0.6,0.1-1.2,0.4-1.8,0.7l-1.5-1.5l-1.4,1.4l1.5,1.5c-0.3,0.5-0.6,1.1-0.7,1.8H18v2h2.1c0.1,0.6,0.4,1.2,0.7,1.8l-1.5,1.5l1.4,1.4
		l1.5-1.5c0.5,0.3,1.1,0.6,1.8,0.7V31h2v-2.1c0.6-0.1,1.2-0.4,1.8-0.7l1.5,1.5l1.4-1.4l-1.5-1.5c0.3-0.5,0.6-1.1,0.7-1.8H32z M27,24
		c0,1.1-0.9,2-2,2s-2-0.9-2-2s0.9-2,2-2S27,22.9,27,24z"/>
	<path class="st0" d="M27,5v10.2c0.7,0.2,1.4,0.4,2,0.7V5c0-1.7-1.3-3-3-3H6C4.3,2,3,3.3,3,5v15h2V5c0-0.6,0.4-1,1-1h20
		C26.6,4,27,4.4,27,5z"/>
	<path class="st0" d="M16,24c0-0.7,0.1-1.4,0.2-2H0v1c0,2.8,2.2,5,5,5h11.9C16.3,26.8,16,25.4,16,24z"/>
</g>
</svg>
