<?xml version="1.0" encoding="utf-8"?>
<!-- Generator: Adobe Illustrator 21.1.0, SVG Export Plug-In . SVG Version: 6.00 Build 0)  -->
<svg version="1.1" id="Layer_1" xmlns="http://www.w3.org/2000/svg" xmlns:xlink="http://www.w3.org/1999/xlink" x="0px" y="0px"
	 viewBox="0 0 24 24" style="enable-background:new 0 0 24 24;" xml:space="preserve">
<style type="text/css">
	.st0{fill:#B78A35;}
</style>
<g>
	<path class="st0" d="M24,11c0-5.5-5.4-10-12-10S0,5.5,0,11s5.4,10,12,10c1,0,2-0.1,3-0.3l5.6,2.2c0.1,0,0.2,0.1,0.4,0.1
		c0.2,0,0.4-0.1,0.6-0.2c0.3-0.2,0.4-0.6,0.4-0.9l-0.5-4.7C23.1,15.4,24,13.2,24,11z M14,14H7v-2h7V14z M17,10H7V8h10V10z"/>
</g>
</svg>
