<?xml version="1.0" encoding="utf-8"?>
<!-- Generator: Adobe Illustrator 21.1.0, SVG Export Plug-In . SVG Version: 6.00 Build 0)  -->
<svg version="1.1" id="Layer_1" xmlns="http://www.w3.org/2000/svg" xmlns:xlink="http://www.w3.org/1999/xlink" x="0px" y="0px"
	 viewBox="0 0 18 18" style="enable-background:new 0 0 18 18;" xml:space="preserve">
<style type="text/css">
	.st0{fill:#C7C7C7;}
</style>
<g>
	<path class="st0" d="M3,8.2H0.7C0.3,8.2,0,8.5,0,9v8.2C0,17.7,0.3,18,0.7,18H3V8.2z"/>
	<path class="st0" d="M16.9,7.8c-0.6-0.7-1.4-1-2.2-1H9.7V3c0-1.6-0.6-3-2.2-3C7.1,0,6.9,0.2,6.7,0.5L4.5,8.2V18h9.3
		c1.5,0,2.8-1,3-2.5l0.8-5.2C17.7,9.4,17.5,8.5,16.9,7.8z"/>
</g>
</svg>
