<?xml version="1.0" encoding="utf-8"?>
<!-- Generator: Adobe Illustrator 21.1.0, SVG Export Plug-In . SVG Version: 6.00 Build 0)  -->
<svg version="1.1" id="Layer_1" xmlns="http://www.w3.org/2000/svg" xmlns:xlink="http://www.w3.org/1999/xlink" x="0px" y="0px"
	 viewBox="0 0 32 32" style="enable-background:new 0 0 32 32;" xml:space="preserve">
<style type="text/css">
	.st0{fill:#B78A35;}
</style>
<g>
	<path class="st0" d="M4.2,10.1C4.6,8.8,5.7,8,7,8h18V5c0-0.6-0.4-1-1-1H12.4L9.7,1.3C9.5,1.1,9.3,1,9,1H1C0.4,1,0,1.4,0,2v20.5
		L4.2,10.1z"/>
	<path class="st0" d="M31.8,10.4C31.6,10.2,31.3,10,31,10H7c-0.4,0-0.8,0.3-0.9,0.7l-6,18C-0.1,29,0,29.3,0.2,29.6
		C0.4,29.8,0.7,30,1,30h24c0.4,0,0.8-0.3,0.9-0.7l6-18C32.1,11,32,10.7,31.8,10.4z"/>
</g>
</svg>
