<?xml version="1.0" encoding="utf-8"?>
<!-- Generator: Adobe Illustrator 21.1.0, SVG Export Plug-In . SVG Version: 6.00 Build 0)  -->
<svg version="1.1" id="Layer_1" xmlns="http://www.w3.org/2000/svg" xmlns:xlink="http://www.w3.org/1999/xlink" x="0px" y="0px"
	 viewBox="0 0 48 48" style="enable-background:new 0 0 48 48;" xml:space="preserve">
<style type="text/css">
	.st0{fill:#D8BC48;}
	.st1{fill:#EFD358;}
</style>
<g>
	<path class="st0" d="M11,20c-3.9,0-7-3.1-7-7V8h7V5H2C1.4,5,1,5.4,1,6v7c0,5.5,4.5,10,10,10V20z"/>
	<path class="st0" d="M37,20c3.9,0,7-3.1,7-7V8h-7V5h9c0.6,0,1,0.4,1,1v7c0,5.5-4.5,10-10,10V20z"/>
	<path class="st0" d="M31,43h-1c-2.2,0-4-1.8-4-4v-8h-4v8c0,2.2-1.8,4-4,4h-1c-1.7,0-3,1.3-3,3v1h20v-1C34,44.3,32.7,43,31,43z"/>
	<path class="st1" d="M24,33c-8.3,0-15-6.7-15-15V2c0-0.6,0.4-1,1-1h28c0.6,0,1,0.4,1,1v16C39,26.3,32.3,33,24,33z"/>
</g>
</svg>
