<?xml version="1.0" encoding="utf-8"?>
<!-- Generator: Adobe Illustrator 21.1.0, SVG Export Plug-In . SVG Version: 6.00 Build 0)  -->
<svg version="1.1" id="Layer_1" xmlns="http://www.w3.org/2000/svg" xmlns:xlink="http://www.w3.org/1999/xlink" x="0px" y="0px"
	 viewBox="0 0 48 48" style="enable-background:new 0 0 48 48;" xml:space="preserve">
<style type="text/css">
	.st0{fill:#FFD764;}
	.st1{fill:#444444;}
	.st2{fill:#FFFFFF;}
	.st3{fill:#AE453E;}
	.st4{fill:#FA645A;}
</style>
<g>
	<path class="st0" d="M24,47C11.3,47,1,36.7,1,24S11.3,1,24,1s23,10.3,23,23S36.7,47,24,47z"/>
	<path class="st1" d="M14,21c-1.7,0-3-1.3-3-3s1.3-3,3-3s3,1.3,3,3S15.7,21,14,21z"/>
	<path class="st1" d="M34,21c-1.7,0-3-1.3-3-3s1.3-3,3-3s3,1.3,3,3S35.7,21,34,21z"/>
	<path class="st2" d="M33,30c0-0.6-0.4-1-1-1H16c-0.6,0-1,0.4-1,1c0,0.3,0,0.6,0,1h18C33,30.6,33,30.3,33,30z"/>
	<path class="st3" d="M15.1,31c0.5,4.5,4.3,8,8.9,8s8.4-3.5,8.9-8H15.1z"/>
	<path class="st4" d="M19.1,37.5c1.4,0.9,3.1,1.5,4.9,1.5s3.5-0.5,4.9-1.5C27.8,36,26,35,24,35S20.2,36,19.1,37.5z"/>
</g>
</svg>
