<?xml version="1.0" encoding="utf-8"?>
<!-- Generator: Adobe Illustrator 21.1.0, SVG Export Plug-In . SVG Version: 6.00 Build 0)  -->
<svg version="1.1" id="Layer_1" xmlns="http://www.w3.org/2000/svg" xmlns:xlink="http://www.w3.org/1999/xlink" x="0px" y="0px"
	 viewBox="0 0 48 48" style="enable-background:new 0 0 48 48;" xml:space="preserve">
<style type="text/css">
	.st0{fill:#FFD764;}
	.st1{fill:#AE453E;}
	.st2{fill:#FA645A;}
	.st3{fill:#444444;}
</style>
<g>
	<path class="st0" d="M24,47C11.3,47,1,36.7,1,24S11.3,1,24,1s23,10.3,23,23S36.7,47,24,47z"/>
	<path class="st1" d="M32,39C32,39,32,39,32,39H16c-0.6,0-1-0.4-1-1c0-5,4-9,9-9c4.9,0,8.9,3.9,9,8.8c0,0.1,0,0.1,0,0.2
		C33,38.6,32.6,39,32,39z"/>
	<path class="st2" d="M28.9,39c-0.5-2.3-2.5-4-4.9-4s-4.4,1.7-4.9,4H28.9z"/>
	<path class="st3" d="M37,19h-6c-0.6,0-1-0.4-1-1s0.4-1,1-1h6c0.6,0,1,0.4,1,1S37.6,19,37,19z"/>
	<path class="st3" d="M17,19h-6c-0.6,0-1-0.4-1-1s0.4-1,1-1h6c0.6,0,1,0.4,1,1S17.6,19,17,19z"/>
</g>
</svg>
