<?xml version="1.0" encoding="utf-8"?>
<!-- Generator: Adobe Illustrator 21.1.0, SVG Export Plug-In . SVG Version: 6.00 Build 0)  -->
<svg version="1.1" id="Layer_1" xmlns="http://www.w3.org/2000/svg" xmlns:xlink="http://www.w3.org/1999/xlink" x="0px" y="0px"
	 viewBox="0 0 48 48" style="enable-background:new 0 0 48 48;" xml:space="preserve">
<style type="text/css">
	.st0{fill:#FFD764;}
	.st1{fill:#444444;}
</style>
<g>
	<path class="st0" d="M24,47C11.3,47,1,36.7,1,24S11.3,1,24,1s23,10.3,23,23S36.7,47,24,47z"/>
	<path class="st1" d="M14,21c-1.7,0-3-1.3-3-3s1.3-3,3-3s3,1.3,3,3S15.7,21,14,21z"/>
	<path class="st1" d="M34,21c-1.7,0-3-1.3-3-3s1.3-3,3-3s3,1.3,3,3S35.7,21,34,21z"/>
	<path class="st1" d="M31,35H17c-0.6,0-1-0.4-1-1s0.4-1,1-1h14c0.6,0,1,0.4,1,1S31.6,35,31,35z"/>
</g>
</svg>
