<?xml version="1.0" encoding="utf-8"?>
<!-- Generator: Adobe Illustrator 21.1.0, SVG Export Plug-In . SVG Version: 6.00 Build 0)  -->
<svg version="1.1" id="Layer_1" xmlns="http://www.w3.org/2000/svg" xmlns:xlink="http://www.w3.org/1999/xlink" x="0px" y="0px"
	 viewBox="0 0 32 32" style="enable-background:new 0 0 32 32;" xml:space="preserve">
<style type="text/css">
	.st0{fill:#B78A35;}
</style>
<g>
	<path class="st0" d="M30.5,15.6c-1.7,6-8.3,10.4-16,10.4c-0.9,0-1.9-0.1-2.8-0.2c2.1,2,5.3,3.2,8.8,3.2c1.1,0,2.2-0.1,3.3-0.4
		l5.2,3.1v-5.7c1.9-1.7,3-3.8,3-6.1C32,18.4,31.5,16.9,30.5,15.6z"/>
	<path class="st0" d="M3,27.6v-8.1c-1.9-2-3-4.5-3-7C0,6.2,6.5,1,14.5,1S29,6.2,29,12.5S22.5,24,14.5,24c-1.2,0-2.4-0.1-3.6-0.4
		L3,27.6z"/>
</g>
</svg>
