<?xml version="1.0" encoding="utf-8"?>
<!-- Generator: Adobe Illustrator 21.1.0, SVG Export Plug-In . SVG Version: 6.00 Build 0)  -->
<svg version="1.1" id="Layer_1" xmlns="http://www.w3.org/2000/svg" xmlns:xlink="http://www.w3.org/1999/xlink" x="0px" y="0px"
	 viewBox="0 0 24 24" style="enable-background:new 0 0 24 24;" xml:space="preserve">
<style type="text/css">
	.st0{fill:#B78A35;}
</style>
<g>
	<path class="st0" d="M23,2h-4V0h-2v2h-4V0h-2v2H7V0H5v2H1C0.4,2,0,2.4,0,3v3h24V3C24,2.4,23.6,2,23,2z"/>
	<path class="st0" d="M0,8v15c0,0.6,0.4,1,1,1h22c0.6,0,1-0.4,1-1V8H0z M10.7,19.7C10.5,19.9,10.3,20,10,20s-0.5-0.1-0.7-0.3l-3-3
		l1.4-1.4l2.3,2.3l6.3-6.3l1.4,1.4L10.7,19.7z"/>
</g>
</svg>
