<?xml version="1.0" encoding="utf-8"?>
<!-- Generator: Adobe Illustrator 21.1.0, SVG Export Plug-In . SVG Version: 6.00 Build 0)  -->
<svg version="1.1" id="Layer_1" xmlns="http://www.w3.org/2000/svg" xmlns:xlink="http://www.w3.org/1999/xlink" x="0px" y="0px"
	 viewBox="0 0 32 32" style="enable-background:new 0 0 32 32;" xml:space="preserve">
<style type="text/css">
	.st0{fill:#B78A35;}
</style>
<g>
	<path class="st0" d="M0,12v19c0,0.6,0.4,1,1,1h30c0.6,0,1-0.4,1-1V12H0z M11,28H5v-5h6V28z M11,21H5v-5h6V21z M19,28h-6v-5h6V28z
		 M19,21h-6v-5h6V21z M27,21h-6v-5h6V21z"/>
	<path class="st0" d="M31,3h-5V1c0-0.6-0.4-1-1-1h-3c-0.6,0-1,0.4-1,1v2H11V1c0-0.6-0.4-1-1-1H7C6.4,0,6,0.4,6,1v2H1
		C0.4,3,0,3.4,0,4v6h32V4C32,3.4,31.6,3,31,3z M11,7H6V5h5V7z M26,7h-5V5h5V7z"/>
</g>
</svg>
