<?xml version="1.0" encoding="utf-8"?>
<!-- Generator: Adobe Illustrator 21.1.0, SVG Export Plug-In . SVG Version: 6.00 Build 0)  -->
<svg version="1.1" id="Layer_1" xmlns="http://www.w3.org/2000/svg" xmlns:xlink="http://www.w3.org/1999/xlink" x="0px" y="0px"
	 viewBox="0 0 18 18" style="enable-background:new 0 0 18 18;" xml:space="preserve">
<style type="text/css">
	.st0{fill:#3F3F3F;}
</style>
<g>
	<path class="st0" d="M17.8,9.2l-9-9C8.6,0.1,8.4,0,8.2,0H0.8C0.4,0,0,0.4,0,0.8v7.4c0,0.2,0.1,0.4,0.2,0.6l9,9
		C9.4,17.9,9.6,18,9.8,18s0.4-0.1,0.6-0.2l7.4-7.4C18.1,10.1,18.1,9.6,17.8,9.2z M4.9,6.5C4,6.5,3.3,5.8,3.3,4.9
		C3.3,4,4,3.3,4.9,3.3S6.5,4,6.5,4.9C6.5,5.8,5.8,6.5,4.9,6.5z"/>
</g>
</svg>
