<?xml version="1.0" encoding="utf-8"?>
<!-- Generator: Adobe Illustrator 21.1.0, SVG Export Plug-In . SVG Version: 6.00 Build 0)  -->
<svg version="1.1" id="Layer_1" xmlns="http://www.w3.org/2000/svg" xmlns:xlink="http://www.w3.org/1999/xlink" x="0px" y="0px"
	 viewBox="0 0 32 32" style="enable-background:new 0 0 32 32;" xml:space="preserve">
<style type="text/css">
	.st0{fill:#B78A35;}
</style>
<g>
	<path class="st0" d="M29,9H3c-0.6,0-1,0.4-1,1v6c0,4.9,3,9.1,7.2,11H0v1c0,1.7,1.3,3,3,3h22c1.7,0,3-1.3,3-3v-1h-9.2
		c4-1.7,6.8-5.5,7.2-10h1c1.7,0,3-1.3,3-3v-4C30,9.4,29.6,9,29,9z M28,14c0,0.6-0.4,1-1,1h-1v-4h2V14z"/>
	<path class="st0" d="M14,5c0.6,0,1-0.4,1-1V1c0-0.6-0.4-1-1-1s-1,0.4-1,1v3C13,4.6,13.4,5,14,5z"/>
	<path class="st0" d="M9,7c0.6,0,1-0.4,1-1V3c0-0.6-0.4-1-1-1S8,2.4,8,3v3C8,6.6,8.4,7,9,7z"/>
	<path class="st0" d="M19,7c0.6,0,1-0.4,1-1V3c0-0.6-0.4-1-1-1s-1,0.4-1,1v3C18,6.6,18.4,7,19,7z"/>
</g>
</svg>
