<?xml version="1.0" encoding="utf-8"?>
<!-- Generator: Adobe Illustrator 21.1.0, SVG Export Plug-In . SVG Version: 6.00 Build 0)  -->
<svg version="1.1" id="Layer_1" xmlns="http://www.w3.org/2000/svg" xmlns:xlink="http://www.w3.org/1999/xlink" x="0px" y="0px"
	 viewBox="0 0 32 32" style="enable-background:new 0 0 32 32;" xml:space="preserve">
<style type="text/css">
	.st0{fill:#B78A35;}
</style>
<g>
	<path class="st0" d="M8,11c0-1.7,1.3-3,3-3h10.6C20.3,3.4,16,0,11,0C4.9,0,0,4.9,0,11c0,5,3.4,9.3,8,10.6V11z"/>
	<path class="st0" d="M31,10H11c-0.6,0-1,0.4-1,1v20c0,0.6,0.4,1,1,1h20c0.6,0,1-0.4,1-1V11C32,10.4,31.6,10,31,10z"/>
</g>
</svg>
